<?xml version="1.0" encoding="UTF-8"?>
<svg id="Layer_2" xmlns="http://www.w3.org/2000/svg" xmlns:xlink="http://www.w3.org/1999/xlink" viewBox="0 0 127 127">
  <defs>
    <style>
      .cls-1 {
        fill: none;
      }

      .cls-2 {
        fill: #56a88c;
      }

      .cls-3 {
        fill: #6c2e2f;
      }

      .cls-4 {
        fill: #fffdf3;
      }

      .cls-5 {
        fill: #231f20;
      }

      .cls-6 {
        fill: #fbd3c4;
      }

      .cls-7 {
        fill: #f27121;
      }

      .cls-8 {
        fill: #fdbd10;
      }

      .cls-9 {
        fill: #efb691;
      }

      .cls-10 {
        fill: #a55356;
      }

      .cls-11 {
        fill: #fff;
      }

      .cls-12 {
        fill: #f48f87;
      }

      .cls-13 {
        fill: #d9dbdc;
      }

      .cls-14 {
        fill: #f7bd15;
      }

      .cls-15 {
        fill: #ce7754;
      }

      .cls-16 {
        fill: #974043;
      }

      .cls-17 {
        fill: #d5956a;
      }

      .cls-18 {
        fill: #fbc6a4;
      }

      .cls-19 {
        fill: #ec756c;
      }

      .cls-20 {
        fill: #f8af9a;
      }

      .cls-21 {
        fill: #321514;
      }

      .cls-22 {
        clip-path: url(#clippath);
      }

      .cls-23 {
        fill: #f9aa53;
      }
    </style>
    <clipPath id="clippath">
      <circle class="cls-1" cx="61.5" cy="58.5" r="54.5"/>
    </clipPath>
  </defs>
  <g id="Layer_1-2" data-name="Layer_1">
    <g>
      <circle class="cls-7" cx="63.5" cy="63.5" r="63.5"/>
      <circle class="cls-4" cx="64" cy="63" r="57"/>
      <g class="cls-22">
        <g>
          <g>
            <g>
              <g>
                <path class="cls-18" d="M41.26,113.26s-23.04-1.02-42.86-17.6c-2.41.71-4.55-.41-7.57-2.68-1.17-1.1,3.9-8.01,6.3-6.87-.09-.08,1.3,1.18,1.3,1.18l3.04,2.98s14.88,13.8,39.46,15.75c5.42,2.27.32,7.23.32,7.23Z"/>
                <path class="cls-9" d="M36.19,112.18c3.82.49,6.23.42,6.23.42,0,0,4.03-4.41-.42-6.04-2.18-.04-4.27-.23-6.26-.49,2.36.7,6.72,5.2.45,6.11Z"/>
              </g>
              <g>
                <path class="cls-18" d="M68.45,117.3s22.96,2.3,44.77-11.56c2.34.42,4.45-.34,7.74-2.19,1.31-.93-2.69-8.25-5.22-7.43.1-.07-1.45,1.01-1.45,1.01l-3.41,2.56s-16.55,11.75-41.18,10.48c-5.67,1.54-1.26,7.13-1.26,7.13Z"/>
                <path class="cls-9" d="M73.61,116.88c-3.86,0-6.23-.39-6.23-.39,0,0-3.42-4.9,1.21-5.93,2.17.24,4.26.33,6.27.33-2.43.39-7.34,4.28-1.24,6Z"/>
                <path class="cls-9" d="M118.17,104.21s-2.35,2.07-5.22,0c3.9-.01,1.76-2.88.01-4.16,2.17-1.89,3.23-3.34,3.23-3.34,0,0,2.74-.23,4.3,6.08-.96.81-2.31,1.42-2.31,1.42Z"/>
              </g>
              <g>
                <path class="cls-18" d="M64.66,108.61s-3.92-1.56-6.39-2.93c.35-2.75,1.55-5.64,1.55-5.64l-4.83-1.6s-1.37,4.32-1.7,6.1c-3.79.13-8.82-.03-8.82-.03,0,0-4.96,10.7,7.69,12.98,3.33.6,11.93-3.63,12.5-8.88Z"/>
                <path class="cls-9" d="M54.95,100.87l3.84,1.24s-.85,1.89-1.18,3.98c-1.19-1.65-3.17-1.96-4.11-.76.36-1.75,1.45-4.47,1.45-4.47Z"/>
              </g>
              <g>
                <g>
                  <path class="cls-7" d="M47.24,105.13c-7.09,13.32,15.67,17.84,17.62,4.24,2.02.28,8.69.66,15.32.1.41,5.22.8,8.83,1.19,12.34-2.43.55-7.67-.63-11.85-.77-2.38,4.63-3.38,21.76-2.88,23,0,0-15.84,2.46-34.96-2.76,0,0,3.97-24.7,3.61-25.19-1.39-.14-3.66.03-8.58-1.05.42-5.83.87-10.41,2.44-11.99,4.32,1.32,15.83,1.68,18.1,2.08Z"/>
                  <path class="cls-23" d="M54.49,128.89c-.04-.28-.24-.52-.51-.61l-2.17-.72-.64-2.2c-.08-.28-.31-.48-.59-.53-.28-.05-.57.06-.74.3l-1.36,1.84-2.29-.07c-.29,0-.55.15-.69.4-.14.25-.12.56.05.8l1.33,1.86-.78,2.15c-.1.27-.03.57.17.78.08.08.18.15.28.19.15.06.33.06.49.01l2.18-.69,1.81,1.4c.06.05.13.09.2.11,0,0,0,0,0,0,.39.14.83-.06.97-.45.04-.12.06-.23.04-.35v-2.2s1.91-1.29,1.91-1.29c.24-.16.36-.44.32-.73Z"/>
                  <path class="cls-23" d="M44.02,127.39c-.02-.17-.14-.31-.3-.37l-1.3-.43-.38-1.31c-.05-.17-.18-.29-.35-.32-.17-.03-.34.04-.44.18l-.81,1.1-1.37-.04c-.17,0-.33.09-.41.24-.08.15-.07.34.03.47l.8,1.11-.46,1.28c-.06.16-.02.34.1.47.05.05.11.09.17.11.09.03.19.04.29,0l1.3-.41,1.08.84s.08.05.12.07c0,0,0,0,0,0,.23.09.49-.03.58-.27.02-.07.03-.14.02-.21v-1.31s1.14-.77,1.14-.77c.14-.1.22-.26.19-.44Z"/>
                  <path class="cls-8" d="M48.6,104.77c-1.33,3.9-1.5,9.26,4.62,10.13,5.39.76,8.04-1.64,8.8-6.99,1.21.21,3.56,1.35,3.56,1.35,0,0-1.92,11.59-13.5,9.26-11-2.22-7.17-13.95-7.17-13.95l3.69.2Z"/>
                </g>
                <path class="cls-14" d="M27.47,102.1s-2.93,8.01-1.89,12.83c1.29.61,2.89.95,2.89.95,0,0,.33-7.69,2.28-13.07-1.66.02-3.28-.71-3.28-.71Z"/>
                <path class="cls-8" d="M77.91,109.02s.07,8.52,1.65,13.19c1.34.05,3.4-.45,3.4-.45-.86-2.06-1.69-6.73-1.25-12.75-1.62.04-3.8,0-3.8,0Z"/>
              </g>
            </g>
            <path class="cls-18" d="M.75,91.01c.45-.86,1.21-3.58.28-5.28-1.38-2.51-3.27-3.9-3.81-2.49-.36.93,1.75,3.49,1.75,3.49,0,0-1.03,1.15-.52,3.01.52,1.87,2.3,1.27,2.3,1.27Z"/>
            <g>
              <path class="cls-18" d="M115.1,96.29c.31-2.07,3.52-3.65,4.38-2.96.86.69.16,1.55.16,1.55,0,0,1.09-.3,1.47.69.43,1.14-.43,1.79-.43,1.79,0,0,1.12-.66,1.67.43.36.71-.19,1.48-.19,1.48,0,0,.91-.31,1.01,1.11.1,1.42-2.93,3.44-3.81,2.51-.54-.57.1-1.65.1-1.65,0,0-1.39,1.13-2.02.18-.64-.95.93-2.21.93-2.21,0,0-1.54.78-1.94-.09-.41-.87.62-1.75.62-1.75,0,0-2.15.32-1.94-1.07Z"/>
              <path class="cls-18" d="M112.49,100.18c-.43-.83-1.17-3.45-.27-5.09,1.33-2.42,3.16-3.76,3.67-2.4.34.89-1.69,3.36-1.69,3.36,0,0,1,1.11.5,2.9-.5,1.8-2.22,1.23-2.22,1.23Z"/>
            </g>
          </g>
          <g>
            <path class="cls-9" d="M54.38,99.96l4.05,1.31s-.89,1.99-1.24,4.19c-1.25-1.74-3.34-2.06-4.33-.8.38-1.85,1.52-4.7,1.52-4.7Z"/>
            <g>
              <path class="cls-16" d="M27.13,62.73s-.24-7.4,2.82-16.34c-.91,1.16-3.31,1.81-3.64.93,7.47-20.27,27.88-31.68,49.46-19.73,25.86.31,37.82,31.7,31.22,41.02-.31-1.21-1.47-1.77-1.47-1.77,0,0-2.07,8.43-6.7,14.4-8.33-.42-71.69-18.51-71.69-18.51Z"/>
              <path class="cls-16" d="M78.11,27.95c3.1.2,8.86,0,9.19-2.21.34-2.22-6.57-.87-8.71-.09,5.52-7.18-2.94-12.9-3.74-1.46-4.35-6.11-9.09-5.17-1.23,2.84,4.39,2.24,4.49.93,4.49.93Z"/>
              <path class="cls-18" d="M92.81,82.27c-4.6,17.58-21.39,25.69-38.31,21.25-16.93-4.43-27.58-19.73-22.98-37.31,7.32-27.97,21.89-27.6,38.82-23.17,16.93,4.43,30.09,10.11,22.47,39.22Z"/>
              <path class="cls-3" d="M48.79,57.91c3.54-.49,3.74,3.35,1.47,3.05-2.43-.33-4.58.27-4.85,0-.6-.61,1.38-2.77,3.38-3.05Z"/>
              <path class="cls-3" d="M82.56,66.86c-2.79-2.24-4.93.97-2.83,1.87,2.25.96,3.79,2.58,4.16,2.48.83-.22.23-3.09-1.34-4.35Z"/>
              <path class="cls-15" d="M64.32,80.33s.08.01.12,0c.16-.03.28-.18.25-.35-.26-1.59-1.23-2.77-2.52-3.09-1.29-.32-2.7.27-3.68,1.55-.1.13-.08.32.06.42.13.1.32.08.42-.06.83-1.08,1.99-1.59,3.05-1.33,1.05.26,1.84,1.26,2.07,2.6.02.12.11.22.23.24Z"/>
              <g>
                <path class="cls-21" d="M50.61,83.3s6.97,3.8,17.63,4.98c-.03,1.02-2.94,11.1-11.98,8.61-9.11-2.51-5.65-13.59-5.65-13.59Z"/>
                <path class="cls-11" d="M52.78,84.27c1.57.64,3.92,1.51,6.88,2.31,0,0,.01,0,.02,0,1.92.52,4.09,1.01,6.47,1.39-.26,1.06-1.06,3.29-7.58,1.45-6.45-1.83-5.98-4.24-5.79-5.17Z"/>
                <path class="cls-19" d="M57.43,93.47c-2.65-2.09-5.28-1.49-6.17-.19.94,1.58,2.49,2.91,4.99,3.6,2.81.77,5.03.33,6.76-.67.01-1.16-2.88-3.21-5.58-2.74Z"/>
                <path class="cls-12" d="M57.38,93.72c-1.79-1.41-3.57-1.01-4.17-.13.64,1.06,1.68,1.97,3.37,2.44,1.9.52,3.4.22,4.57-.45,0-.79-1.94-2.17-3.77-1.86Z"/>
              </g>
              <path class="cls-20" d="M86.41,90.01c-1.1,2.88-4.57,3.98-8.45,2.91-3.74-1.04-6.55-5.04-4.99-7.54,1.48-2.38,3.19-.81,7.96-.95,4.61-.14,6.58,2.7,5.48,5.58Z"/>
              <path class="cls-6" d="M84.32,87.64c-.1.26-.46.37-.8.24-.34-.13-.53-.45-.43-.71.1-.26.46-.37.8-.24.34.13.53.45.43.71Z"/>
              <path class="cls-20" d="M33.58,75.96c-.45,3.05,2.03,5.71,5.94,6.68,3.76.93,8.18-1.18,8.04-4.13-.13-2.8-2.39-2.27-6.47-4.73-3.95-2.38-7.06-.87-7.51,2.18Z"/>
              <path class="cls-6" d="M36.57,74.92c-.04.28.22.55.58.6.36.05.68-.13.73-.41.04-.28-.22-.55-.58-.6-.36-.05-.68.13-.73.41Z"/>
              <g>
                <path class="cls-9" d="M72.68,72.94c-1.95,2.74-1.44,6.47,1.15,8.32,2.59,1.85,6.28,1.12,8.24-1.62,1.96-2.75,1.45-6.47-1.14-8.32-2.59-1.85-6.28-1.12-8.24,1.62Z"/>
                <path class="cls-9" d="M72.95,79.09c-1.88-.31-2.52.41-1.44,1.6,1.08,1.19,3.48,2.41,5.36,2.71,1.88.31,2.52-.41,1.44-1.6-1.08-1.19-3.48-2.4-5.36-2.71Z"/>
                <path class="cls-11" d="M73.24,73.23c-1.94,2.71-1.43,6.39,1.13,8.22,2.56,1.83,6.21,1.11,8.14-1.6,1.94-2.72,1.43-6.39-1.13-8.22-2.56-1.83-6.21-1.11-8.14,1.6Z"/>
                <path class="cls-13" d="M73.69,73.97c.38-.54.85-.97,1.36-1.32-.25.24-.48.5-.69.79-1.7,2.39-1.25,5.62,1,7.23,1.34.95,3.01,1.1,4.51.58-1.64.91-3.65.9-5.21-.2-2.2-1.58-2.64-4.74-.97-7.08Z"/>
                <path class="cls-2" d="M74.37,75.93c-.42,1.75.58,3.5,2.24,3.9,1.66.4,3.34-.7,3.76-2.45.42-1.76-.58-3.5-2.23-3.9-1.66-.4-3.34.7-3.77,2.46Z"/>
                <path class="cls-5" d="M75.56,76.35c-.25,1.05.35,2.09,1.34,2.33.99.24,2-.42,2.25-1.47.25-1.05-.35-2.09-1.34-2.33-.99-.24-2,.42-2.25,1.47Z"/>
                <path class="cls-11" d="M77.87,75.72c-.11.45.15.89.57.99.42.1.84-.18.95-.62.11-.44-.15-.88-.56-.99-.42-.1-.85.18-.96.62Z"/>
                <path class="cls-11" d="M75.29,77.55c-.07.27.09.54.34.6.25.06.51-.11.58-.38.06-.27-.09-.54-.34-.6-.25-.06-.51.11-.58.38Z"/>
              </g>
              <g>
                <path class="cls-9" d="M54.23,68.12c.36,3.35-1.91,6.35-5.07,6.69-3.16.34-6.03-2.1-6.39-5.45-.36-3.35,1.91-6.35,5.07-6.69,3.17-.34,6.02,2.1,6.39,5.45Z"/>
                <path class="cls-9" d="M50.98,73.34c1.79.65,2,1.59.47,2.11-1.53.51-4.22.39-6-.26-1.79-.65-2-1.59-.47-2.11,1.53-.51,4.21-.39,6,.26Z"/>
                <path class="cls-11" d="M53.59,68.09c.36,3.31-1.89,6.27-5.01,6.61-3.13.34-5.96-2.07-6.31-5.39-.36-3.32,1.89-6.27,5.01-6.62,3.13-.34,5.96,2.08,6.31,5.39Z"/>
                <path class="cls-13" d="M52.85,68.51c-.07-.66-.27-1.27-.54-1.82.1.33.17.67.21,1.03.31,2.91-1.66,5.52-4.41,5.82-1.64.18-3.16-.52-4.21-1.71.99,1.59,2.74,2.58,4.64,2.38,2.69-.3,4.62-2.84,4.31-5.69Z"/>
                <path class="cls-2" d="M51.29,69.89c-.49,1.74-2.22,2.77-3.86,2.3-1.64-.46-2.57-2.25-2.08-3.98.49-1.74,2.22-2.77,3.86-2.31,1.64.46,2.57,2.25,2.08,3.99Z"/>
                <path class="cls-5" d="M50.04,69.67c-.3,1.04-1.33,1.66-2.31,1.38-.98-.28-1.54-1.35-1.24-2.39.3-1.04,1.33-1.66,2.31-1.38.98.28,1.54,1.35,1.24,2.39Z"/>
                <path class="cls-11" d="M48.34,67.99c-.12.44-.56.7-.98.58-.41-.12-.65-.57-.53-1.01.12-.44.56-.7.98-.59.41.12.65.57.53,1.01Z"/>
                <path class="cls-11" d="M49.69,70.85c-.07.27-.34.42-.59.35-.25-.07-.39-.35-.32-.61.08-.26.34-.42.59-.35.25.07.39.35.32.61Z"/>
              </g>
              <g>
                <path class="cls-16" d="M91.98,35.66c-16.67-14.03-31.56-7.98-31.56-7.98,0,0-6.74-4.28-17.42,2.55-12.39,7.92-18.3,28.07-14.6,36.8,8.38-.31,12.93-16.18,12.93-16.18,3.71,2.38,8.6,4.55,13.98,6.41.46.16,5.96-6.85,8.14-9.5-.92,2.7-2.48,5.97-5.13,10.5,1.38.44,3.63,1.08,5.04,1.47,1.92-2.53,5.45-10.24,6.98-12.87-.55,5.08-.89,10.91-.66,14.45,1.64.37,3.28.71,4.9,1.02-.03-2.29.03-9.28.68-11.8.61,3.63,2.59,11.23,2.83,12.43,5.75.95,10.98,1.44,14.67,1.33-2.52,7.56-.94,15.6-.04,18.95,15.39-8.66,15.21-34.16-.75-47.58Z"/>
                <path class="cls-3" d="M31.75,46.57s-3.2,7.43-2.93,15.02c1.8,2.01,4.54,2.51,4.54,2.51,0,0,5.16-6.95,6.76-13.19-5.29,7.46-8.7,5.49-8.37-4.34Z"/>
                <path class="cls-3" d="M104.25,65.94s-1.44,7.96-5.88,14.13c-2.61.68-5.17-.42-5.17-.42,0,0-.45-8.64,1.67-14.73.27,9.14,4.21,9.39,9.38,1.02Z"/>
                <path class="cls-10" d="M86.42,52.34c5.25,1.3,1.19-13.9,1.19-13.9,0,0,6.15,17.67,12.73,17.04,6.58-.63-10.68-17.7-10.68-17.7,0,0,8.74,8.09,10.56,8.67,2.72.87.17-6.72-9.83-12.19-10-5.47-14.04-.88-14.13,1.62-.28,7.87,7.47,15.79,10.16,16.46Z"/>
                <path class="cls-10" d="M71.15,33.53c1.05-2.28-.47-8.19-11.87-7.83-11.4.36-17.1,5.97-14.28,6.43,1.89.31,13.34-2.96,13.34-2.96,0,0-23.12,7.43-17.53,10.96,5.59,3.53,19.06-9.45,19.06-9.45,0,0-10.49,11.72-5.22,12.93,2.7.62,13.2-2.94,16.5-10.09Z"/>
              </g>
              <g>
                <path class="cls-18" d="M90.78,80.53s1.51-4.07,6.01-3.67c4.74.43,5.07,7.24,1.61,10.88-3.46,3.63-8.76,3.18-9.57-.47l1.96-6.74Z"/>
                <path class="cls-17" d="M97.25,78.9c-2.85-1.27-6.68,4.36-3.35,8.44-.72-4.72,1.19-5.87,2.86-3.33.3-1.42-.24-2.48-2.08-2.72.57-1.85,2.57-2.39,2.57-2.39Z"/>
              </g>
              <g>
                <path class="cls-18" d="M33.2,65.45s.68-4.29-3.44-6.14c-4.34-1.95-7.97,3.83-6.74,8.7,1.24,4.86,6.08,7.07,8.58,4.28l1.59-6.84Z"/>
                <path class="cls-17" d="M28.36,60.85c3.11.29,3.69,7.08-1.21,9,2.94-3.76,1.84-5.7-.86-4.3.44-1.39,1.43-2.04,3.15-1.35.41-1.89-1.07-3.35-1.07-3.35Z"/>
              </g>
            </g>
          </g>
        </g>
      </g>
    </g>
  </g>
</svg>