<?xml version="1.0" encoding="UTF-8"?>
<svg id="Layer_2" xmlns="http://www.w3.org/2000/svg" viewBox="0 0 120.68 176.8">
  <defs>
    <style>
      .cls-1 {
        fill: #89c98e;
      }

      .cls-2 {
        fill: #594448;
      }

      .cls-3 {
        fill: #231f20;
      }

      .cls-4 {
        fill: #45af51;
      }

      .cls-5 {
        fill: #fbd3c4;
      }

      .cls-6 {
        fill: #3f2e32;
      }

      .cls-7 {
        fill: #00a1ba;
      }

      .cls-8 {
        fill: #efb691;
      }

      .cls-9 {
        fill: #fff;
      }

      .cls-10 {
        fill: #f48f87;
      }

      .cls-11 {
        fill: #d9dbdc;
      }

      .cls-12 {
        fill: #ce7754;
      }

      .cls-13 {
        fill: #fdf8ee;
      }

      .cls-14 {
        fill: #d5956a;
      }

      .cls-15 {
        fill: #fbc6a4;
      }

      .cls-16 {
        fill: #ec756c;
      }

      .cls-17 {
        fill: #f8af9a;
      }

      .cls-18 {
        fill: #8ed5e7;
      }

      .cls-19 {
        fill: #4e3b3f;
      }

      .cls-20 {
        fill: #321514;
      }
    </style>
  </defs>
  <g id="Layer_1-2" data-name="Layer_1">
    <g>
      <g>
        <g>
          <g>
            <path class="cls-15" d="M56.27,131.9v35.05c2.5.3,4.67-.36,4.67-.36v-33.8c-.98-.72-4.67-2.11-4.67-.89Z"/>
            <g>
              <path class="cls-1" d="M61.6,167.21c.38.32.68,1.99.43,2.58-1.11,2.38-3.99,5.96-8,6.79-2.93.61-6.06-.2-6.88-1.66-.24-.43-.68-1.61-.1-2.57,3.86-3.02,14.55-5.14,14.55-5.14Z"/>
              <path class="cls-4" d="M60.62,163.18s-1.21,2.84-2.21,2.47c.51-1.08-.43-3.27-1.89-3.31-1.46-.04-1.35,1.94-1.35,1.94,0,0-1.92-.07-4.52,1.38-4.38,2.44-4.2,5.59-3.6,6.7.88,1.01,4.2,1.98,8,.87,3.8-1.12,5.85-4.64,6.29-5.15.43-.5.65-1.67.14-2.48-.5-.81.08-2.54-.85-2.41Z"/>
              <path class="cls-18" d="M49.79,168.12c-1.43-.24-3.32,2.22-1.61,3.68,1.72,1.45,6.12-.14,6.12-.14,0,0-4.32.66-4.17-1.38.05-.77.87-1.97-.35-2.17Z"/>
              <path class="cls-9" d="M56.15,166.71c-.09.01-.18-.02-.25-.1-1.43-1.59-2.53-.45-2.57-.39-.12.12-.3.12-.41-.02-.12-.14-.12-.36,0-.48.01-.01,1.56-1.62,3.4.43.12.13.12.34.01.47-.05.05-.1.08-.17.09Z"/>
              <path class="cls-9" d="M53.44,167.74c-.09.01-.19-.02-.25-.1-1.44-1.59-2.53-.45-2.57-.39-.12.12-.31.11-.42-.03-.11-.13-.11-.34,0-.47.02-.01,1.56-1.62,3.4.43.12.13.12.34.01.47-.05.05-.1.08-.16.09Z"/>
            </g>
            <path class="cls-15" d="M73.29,131.9v35.05c-2.5.3-4.67-.36-4.67-.36v-33.8c.98-.72,4.67-2.11,4.67-.89Z"/>
            <g>
              <path class="cls-1" d="M67.97,167.21c-.38.32-.68,1.99-.43,2.58,1.11,2.38,3.99,5.96,8,6.79,2.93.61,6.06-.2,6.88-1.66.24-.43.68-1.61.1-2.57-3.86-3.02-14.55-5.14-14.55-5.14Z"/>
              <path class="cls-4" d="M68.94,163.18s1.21,2.84,2.21,2.47c-.51-1.08.43-3.27,1.89-3.31,1.46-.04,1.35,1.94,1.35,1.94,0,0,1.92-.07,4.52,1.38,4.38,2.44,4.2,5.59,3.6,6.7-.88,1.01-4.2,1.98-8,.87-3.8-1.12-5.85-4.64-6.29-5.15-.43-.5-.65-1.67-.14-2.48.5-.81-.08-2.54.85-2.41Z"/>
              <path class="cls-1" d="M79.77,168.12c1.43-.24,3.32,2.22,1.61,3.68-1.72,1.45-6.12-.14-6.12-.14,0,0,4.32.66,4.17-1.38-.05-.77-.87-1.97.35-2.17Z"/>
              <path class="cls-9" d="M73.41,166.71c.09.01.18-.02.25-.1,1.43-1.59,2.53-.45,2.57-.39.12.12.3.12.41-.02.12-.14.12-.36,0-.48-.01-.01-1.56-1.62-3.4.43-.12.13-.12.34-.01.47.05.05.1.08.17.09Z"/>
              <path class="cls-9" d="M76.13,167.74c.09.01.19-.02.25-.1,1.44-1.59,2.53-.45,2.57-.39.12.12.31.11.42-.03.11-.13.11-.34,0-.47-.02-.01-1.56-1.62-3.4.43-.12.13-.12.34-.01.47.05.05.1.08.16.09Z"/>
            </g>
          </g>
          <g>
            <path class="cls-15" d="M74.79,91.64s19.31.05,36.35-13.26c1.8,1.05,3.94.11,6.53-1.7,1.01-.88-3.17-7.41-5.21-6.52.08-.07-1.12.95-1.12.95l-2.63,2.41s-12.83,11.13-33.45,12.07c-4.6,1.74-.47,6.04-.47,6.04Z"/>
            <path class="cls-8" d="M79.06,90.87c-3.21.3-5.22.18-5.22.18,0,0-3.25-3.8.52-5.04,1.83.02,3.57-.07,5.25-.24-2,.52-5.77,4.16-.55,5.09Z"/>
            <path class="cls-8" d="M115.92,77.1s-2.27,2.32-4.83.83c3.25-.33.93-3.35-.63-4.27,1.65-1.75,2.42-3.05,2.42-3.05,0,0,2.54.45,4.35,5.57-.73.75-1.31.91-1.31.91Z"/>
          </g>
          <g>
            <path class="cls-15" d="M51.93,94.26s-19.27,1.28-37.12-10.92c-1.73,1.16-3.93.37-6.62-1.28-1.07-.82,2.69-7.6,4.78-6.84-.08-.06,1.18.88,1.18.88l2.78,2.24s13.51,10.29,34.15,9.92c4.7,1.45.85,6,.85,6Z"/>
            <path class="cls-8" d="M47.62,93.76c3.23.1,5.22-.15,5.22-.15,0,0,3-4-.84-4.99-1.82.14-3.57.15-5.25.1,2.03.39,6.02,3.78.87,5.05Z"/>
            <path class="cls-8" d="M9.96,82.36s2.41,2.17,4.87.52c-3.26-.12-1.15-3.29.36-4.31-1.76-1.64-2.61-2.89-2.61-2.89,0,0-2.51.61-3.99,5.84.78.7,1.36.83,1.36.83Z"/>
          </g>
          <g>
            <path class="cls-15" d="M52.86,87.52s3.79-1.22,6.21-2.35c-.15-2.61-1.1-5.42-1.1-5.42l4.65-1.19s1.01,4.16,1.21,5.86c3.57.37,8.31.54,8.31.54,0,0,3.98,10.4-8.08,11.74-3.18.35-11.01-4.19-11.2-9.18Z"/>
            <path class="cls-8" d="M62.37,80.19l-3.7.92s.68,1.84.85,3.83c1.22-1.48,3.12-1.64,3.93-.45-.23-1.68-1.08-4.3-1.08-4.3Z"/>
          </g>
          <g>
            <path class="cls-4" d="M69.53,84.93c4.21,10.48-14.72,15.32-15.68,2.37-1.92.13-4.49.9-5.34.88.69,4.67.69,7.5.02,9.51.13,4.3-6.72,27.83-8.87,32.67,9.86,6.81,34.15,8.38,50.28-.94,0,0-9.95-33.78-10.08-34.34-.74-2.98-2.42-7.65-4-9.44-1.69-.58-4.92-.98-6.32-.7Z"/>
            <path class="cls-1" d="M40.2,128.63s18.43,10.71,49.46-.42c.61,1.54.9,3.13.9,3.13,0,0-1.6,2.99-4.66,1.39-1.18,3.9-5.08,3.83-6.26,2.43-1.53,2.78-6.12,2.92-6.68,1.39-2.22,3.29-7.23,2.3-7.44.63-1.94,3.02-7.51,1.95-7.93.07-3.2,1.25-6.89-.7-6.96-1.88-2.37,1.6-5.63,1.04-5.57-.83-1.46,2.02-4.73.56-4.38-1.25-1.6.56-1.95-1.67-1.95-1.67l1.46-2.99Z"/>
            <path class="cls-13" d="M68.32,84.73c1,3.76.77,8.55-5.05,9.01-3.82.3-6.65-2.06-7.84-7.16-.97.33-1.8.67-1.8.67,0,0,1.44,10.11,11.01,8.14,7.96-1.64,5.45-10.7,5.45-10.7l-1.77.04Z"/>
          </g>
        </g>
        <g>
          <g>
            <path class="cls-6" d="M36.5,42.9c-1.27-.38-2.33-2.36-2.39-3.58,7.58-11.22.62-17.41-4.55-14.45,4.11-9.48-7.39-13.43-10.2-6.74-2.52-7.77-16.7-.84-11.18,4.94-9.27-1.41-12.18,13.77-.62,15.41-4.4,6.26,5.97,10.02,9.37,4.76,2.71,6.63,7.18,3.89,8,.03,1.59,2.44,5.31,4.07,5.31,4.07l6.26-4.44Z"/>
            <path class="cls-4" d="M29.7,17.76c-3.26.89-16.14,10.27-14.77,27.12,1.35,5.36,8.67,3.06,8.67,3.06l11.26-28.07s-1.87-3.02-5.16-2.12Z"/>
          </g>
          <g>
            <path class="cls-6" d="M71.19,34.97c1.04-.82,1.29-3.05.9-4.21-11.19-7.63-7.01-15.94-1.11-15.11-7.32-7.28,1.9-15.21,6.98-10.03-.53-8.15,15.21-6.95,12.21.46,8.09-4.73,16.41,8.3,6.27,14.09,6.4,4.19-1.84,11.52-6.94,7.89-.07,7.16-5.23,6.27-7.43,2.98-.57,2.85-3.43,5.75-3.43,5.75l-7.46-1.81Z"/>
            <path class="cls-4" d="M69.09,8.22c3.36-.38,18.79,3.57,23.75,19.74.73,5.48-6.92,6.05-6.92,6.05l-20.84-21.92s.62-3.5,4.01-3.88Z"/>
          </g>
          <path class="cls-15" d="M29.86,61.83c3.01,16.04,17.54,24.37,32.99,21.47,15.45-2.9,25.96-15.93,22.94-31.98-4.79-25.53-17.87-26.12-33.32-23.21-15.45,2.9-27.6,7.15-22.62,33.72Z"/>
          <path class="cls-6" d="M70.84,42.78c-3.14-.67-3.56,2.77-1.51,2.64,2.2-.14,4.09.54,4.35.31.58-.51-1.06-2.57-2.83-2.95Z"/>
          <path class="cls-6" d="M40.01,48.66c2.64-1.83,4.35,1.18,2.42,1.85-2.08.72-3.56,2.07-3.89,1.96-.73-.24-.01-2.78,1.47-3.81Z"/>
          <path class="cls-12" d="M55.51,61.88s-.07,0-.11,0c-.15-.03-.24-.18-.2-.33.33-1.4,1.27-2.4,2.45-2.61,1.18-.21,2.4.41,3.19,1.62.08.13.05.29-.08.38-.13.08-.29.05-.38-.08-.67-1.02-1.69-1.55-2.65-1.38-.96.17-1.73,1.01-2.02,2.2-.03.11-.11.19-.22.2Z"/>
          <g>
            <path class="cls-20" d="M67.61,65.41s-6.49,2.96-16.11,3.35c-.04.92,1.94,10.13,10.19,8.47,8.32-1.68,5.92-11.82,5.92-11.82Z"/>
            <path class="cls-9" d="M65.59,66.14c-1.44.48-3.61,1.11-6.31,1.64,0,0-.01,0-.02,0-1.75.34-3.73.65-5.88.84.17.96.74,3.02,6.7,1.78,5.9-1.23,5.63-3.42,5.51-4.26Z"/>
            <path class="cls-16" d="M60.85,74.09c2.51-1.71,4.82-1,5.54.22-.94,1.35-2.41,2.45-4.7,2.91-2.57.51-4.53-.02-6.01-1.03.06-1.04,2.78-2.69,5.17-2.11Z"/>
            <path class="cls-10" d="M60.88,74.32c1.69-1.15,3.26-.68,3.74.15-.64.91-1.63,1.66-3.18,1.97-1.74.35-3.06-.01-4.06-.7.04-.7,1.88-1.82,3.5-1.42Z"/>
          </g>
          <path class="cls-17" d="M35.1,69.16c.81,2.65,3.85,3.86,7.39,3.14,3.41-.69,6.19-4.1,4.94-6.44-1.18-2.23-2.81-.92-7.07-1.35-4.12-.41-6.07,2.01-5.26,4.65Z"/>
          <path class="cls-5" d="M37.13,67.17c.07.24.39.36.7.26.31-.1.51-.37.43-.61-.07-.24-.39-.36-.7-.27-.31.1-.51.37-.43.61Z"/>
          <path class="cls-17" d="M83.32,59.91c.21,2.76-2.18,4.99-5.74,5.61-3.43.59-7.25-1.58-6.95-4.21.29-2.5,2.28-1.88,6.1-3.83,3.69-1.88,6.38-.33,6.59,2.43Z"/>
          <path class="cls-5" d="M80.71,58.79c.02.25-.23.48-.56.5-.33.02-.61-.16-.62-.41-.02-.25.23-.48.56-.5.33-.02.61.16.63.41Z"/>
          <g>
            <path class="cls-8" d="M48.48,54.74c1.58,2.58.88,5.89-1.55,7.38-2.44,1.49-5.7.61-7.28-1.97-1.58-2.58-.89-5.89,1.55-7.38,2.44-1.49,5.7-.61,7.28,1.97Z"/>
            <path class="cls-8" d="M47.85,60.23c1.7-.16,2.23.53,1.19,1.53-1.05,1-3.27,1.94-4.97,2.09-1.7.16-2.23-.53-1.19-1.53,1.04-1,3.27-1.93,4.97-2.09Z"/>
            <path class="cls-9" d="M47.96,54.96c1.56,2.55.88,5.82-1.53,7.3-2.41,1.47-5.63.6-7.19-1.95-1.56-2.56-.88-5.82,1.53-7.3,2.41-1.47,5.63-.6,7.2,1.95Z"/>
            <path class="cls-11" d="M47.51,55.59c-.31-.51-.7-.93-1.14-1.27.21.23.4.48.57.75,1.37,2.25.77,5.12-1.35,6.42-1.26.77-2.77.8-4.08.23,1.41.92,3.22,1.04,4.68.15,2.07-1.27,2.66-4.08,1.32-6.28Z"/>
            <path class="cls-7" d="M46.78,57.31c.27,1.6-.74,3.1-2.25,3.35-1.51.25-2.95-.84-3.22-2.44-.27-1.6.74-3.1,2.25-3.35,1.51-.25,2.95.84,3.22,2.44Z"/>
            <path class="cls-3" d="M45.68,57.61c.16.96-.45,1.85-1.35,2.01-.9.15-1.77-.5-1.93-1.46-.16-.96.44-1.85,1.35-2.01.9-.15,1.77.5,1.93,1.46Z"/>
            <path class="cls-9" d="M43.65,56.9c.07.41-.19.79-.57.85-.38.06-.74-.21-.81-.62-.07-.4.19-.78.57-.85.38-.06.75.22.82.62Z"/>
            <path class="cls-9" d="M45.85,58.7c.04.25-.11.47-.35.52-.23.04-.45-.13-.49-.38-.04-.24.11-.47.35-.51.23-.04.45.13.49.37Z"/>
          </g>
          <g>
            <path class="cls-8" d="M65.32,51.58c-.53,2.98,1.31,5.81,4.12,6.31,2.81.51,5.53-1.5,6.07-4.48.54-2.98-1.31-5.81-4.12-6.32-2.82-.51-5.53,1.5-6.07,4.48Z"/>
            <path class="cls-8" d="M67.9,56.46c-1.64.47-1.89,1.3-.56,1.86,1.34.55,3.75.62,5.39.15,1.64-.47,1.89-1.3.56-1.86-1.34-.55-3.75-.62-5.39-.15Z"/>
            <path class="cls-9" d="M65.89,51.59c-.53,2.95,1.29,5.74,4.07,6.24,2.78.5,5.47-1.48,6-4.43.53-2.95-1.29-5.74-4.07-6.24-2.78-.5-5.47,1.48-6,4.43Z"/>
            <path class="cls-11" d="M66.53,52.02c.11-.58.32-1.12.6-1.6-.11.29-.2.59-.26.91-.46,2.59,1.14,5.05,3.59,5.49,1.45.26,2.87-.26,3.88-1.26-.98,1.37-2.62,2.14-4.31,1.84-2.39-.43-3.96-2.84-3.51-5.37Z"/>
            <path class="cls-7" d="M67.84,53.35c.33,1.59,1.82,2.62,3.31,2.31,1.5-.31,2.45-1.85,2.11-3.44-.33-1.59-1.81-2.62-3.31-2.31-1.5.31-2.45,1.85-2.12,3.44Z"/>
            <path class="cls-3" d="M68.97,53.24c.2.95,1.09,1.57,1.98,1.38.9-.19,1.46-1.11,1.27-2.06-.2-.95-1.09-1.57-1.98-1.38-.9.19-1.46,1.11-1.27,2.06Z"/>
            <path class="cls-9" d="M70.61,51.84c.08.4.46.66.84.58.38-.08.62-.47.54-.87-.08-.4-.46-.66-.84-.59-.38.08-.62.47-.54.87Z"/>
            <path class="cls-9" d="M69.21,54.31c.05.24.28.4.51.35.23-.05.37-.28.32-.53-.05-.24-.28-.4-.51-.35-.23.05-.38.28-.32.53Z"/>
          </g>
          <g>
            <path class="cls-19" d="M49.43,15.81c8.02-8.48,21.71-6.82,31.54,1.63,10.03,8.63,11.61,27.24,7.75,34.84-7.5-.81-10.57-15.34-10.57-15.34-3.48,1.9-24.57-2.96-25.78-5.41.17,4.6-17.91,14.55-21.22,14.22,1.78,6.94-.14,14.06-1.16,17.01-10.2-6.73-13.88-22.29-6.93-33.87,5.99-9.98,14.34-16.88,26.38-13.08Z"/>
            <path class="cls-6" d="M87.02,33.71s2.4,6.87,1.67,13.66c-1.74,1.69-4.23,1.97-4.23,1.97,0,0-4.19-6.56-5.23-12.26,4.27,7.03,7.46,5.47,7.79-3.37Z"/>
            <path class="cls-6" d="M20.75,46.49s.79,7.23,4.38,13.05c2.3.77,4.67-.05,4.67-.05,0,0,.95-7.73-.57-13.32-.82,8.19-4.38,8.16-8.48.32Z"/>
            <path class="cls-2" d="M48.66,21.56c.08-2.25-3.25-6.63-12.57-2.35-9.32,4.28-12.09,10.92-9.59,10.32,1.67-.4,10.02-7.11,10.02-7.11,0,0-16.57,14.23-10.7,15.21,5.87.98,12.5-14.48,12.5-14.48,0,0-4.6,13.38.19,12.54,2.45-.43,9.91-7.04,10.16-14.12ZM67.56,29.87c4.8-.75-3.86-11.93-3.86-11.93,0,0,11.26,12.5,16.5,9.68,5.24-2.82-15.04-10.94-15.04-10.94,0,0,10.06,3.65,11.78,3.5,2.56-.23-2.2-5.63-12.41-6.67-10.2-1.04-11.94,4.17-11.14,6.28,2.51,6.62,11.7,10.48,14.17,10.09Z"/>
          </g>
          <g>
            <path class="cls-15" d="M31.78,60.39s-1.09-3.74-5.15-3.67c-4.28.08-5,6.17-2.13,9.65,2.87,3.47,7.65,3.4,8.61.18l-1.33-6.16Z"/>
            <path class="cls-14" d="M26.09,58.52c2.64-.96,5.71,4.33,2.47,7.77.95-4.18-.69-5.34-2.36-3.16-.18-1.3.37-2.21,2.04-2.3-.39-1.69-2.15-2.31-2.15-2.31Z"/>
          </g>
          <g>
            <path class="cls-15" d="M84.33,50.52s-.34-3.89,3.47-5.29c4.02-1.48,6.9,3.94,5.49,8.22-1.42,4.28-5.9,5.95-7.96,3.29l-1-6.23Z"/>
            <path class="cls-14" d="M88.95,46.71c-2.81.07-3.75,6.11.52,8.14-2.4-3.55-1.29-5.22,1.05-3.8-.3-1.27-1.15-1.92-2.73-1.41-.25-1.72,1.17-2.93,1.17-2.93Z"/>
          </g>
        </g>
      </g>
      <g>
        <path class="cls-15" d="M13.28,75.54c-.22-1.94-3.17-3.52-3.99-2.9-.82.62-.2,1.44-.2,1.44,0,0-1.01-.32-1.39.6-.43,1.05.34,1.68.34,1.68,0,0-1.02-.65-1.57.34-.36.65.13,1.38.13,1.38,0,0-.84-.32-.98,1-.14,1.32,2.62,3.3,3.48,2.46.52-.51-.04-1.55-.04-1.55,0,0,1.26,1.1,1.88.23.63-.87-.8-2.09-.8-2.09,0,0,1.41.78,1.81-.03.41-.8-.52-1.65-.52-1.65,0,0,1.99.37,1.84-.93Z"/>
        <path class="cls-15" d="M15.59,79.25c.43-.76,1.2-3.18.41-4.74-1.16-2.3-2.82-3.6-3.35-2.35-.35.82,1.47,3.19,1.47,3.19,0,0-.96,1-.56,2.69.41,1.7,2.03,1.21,2.03,1.21Z"/>
      </g>
      <g>
        <path class="cls-15" d="M112.98,70.33c.29-1.98,3.35-3.48,4.17-2.82.82.66.15,1.48.15,1.48,0,0,1.04-.29,1.4.66.41,1.09-.41,1.71-.41,1.71,0,0,1.07-.63,1.59.41.34.68-.18,1.41-.18,1.41,0,0,.87-.3.97,1.05.1,1.35-2.79,3.28-3.63,2.39-.51-.54.1-1.58.1-1.58,0,0-1.32,1.08-1.93.17-.61-.91.89-2.1.89-2.1,0,0-1.46.75-1.85-.09-.39-.83.59-1.66.59-1.66,0,0-2.05.31-1.85-1.02Z"/>
        <path class="cls-15" d="M110.5,74.03c-.41-.79-1.12-3.29-.26-4.85,1.27-2.31,3.01-3.58,3.5-2.29.33.85-1.61,3.21-1.61,3.21,0,0,.95,1.06.48,2.76-.48,1.72-2.12,1.17-2.12,1.17Z"/>
      </g>
    </g>
  </g>
</svg>