<?xml version="1.0" encoding="UTF-8"?>
<svg id="Layer_2" data-name="Layer 2" xmlns="http://www.w3.org/2000/svg" viewBox="0 0 639.43 360">
  <defs>
    <style>
      .cls-1 {
        fill: #f6b1cf;
      }

      .cls-2 {
        fill: #de99b7;
      }

      .cls-3 {
        fill: #e38fb4;
      }

      .cls-4 {
        fill: #fffdf3;
      }

      .cls-5 {
        fill: #cfecf6;
      }

      .cls-6 {
        fill: #6c9eb9;
      }

      .cls-7 {
        fill: #89c98e;
      }

      .cls-8 {
        fill: #e9aec8;
      }

      .cls-9 {
        fill: #d4ecf2;
      }

      .cls-10 {
        fill: #834319;
      }

      .cls-11 {
        fill: #4d4c4c;
      }

      .cls-12 {
        fill: #ed5d5d;
      }

      .cls-13 {
        fill: #78c7ef;
      }

      .cls-14 {
        fill: #dbdbdb;
      }

      .cls-15 {
        fill: #7cc9f0;
      }

      .cls-16 {
        fill: #45af51;
      }

      .cls-17 {
        fill: #f5ead4;
      }

      .cls-18 {
        fill: #4dabdc;
      }

      .cls-19 {
        fill: #fceef4;
      }

      .cls-20 {
        fill: #80b1cc;
      }

      .cls-21 {
        fill: #00b5d1;
      }

      .cls-22 {
        fill: #83d1dc;
      }

      .cls-23 {
        fill: #a3dced;
      }

      .cls-24 {
        fill: #f49090;
      }

      .cls-25 {
        fill: #6bbae2;
      }

      .cls-26 {
        fill: #fff;
      }

      .cls-27 {
        fill: #fad8e7;
      }

      .cls-28 {
        fill: #a5dcf7;
      }

      .cls-29 {
        fill: #76c4ed;
      }

      .cls-30 {
        fill: #f7bed7;
      }

      .cls-31 {
        opacity: .6;
      }

      .cls-32 {
        fill: #5e90ad;
      }

      .cls-33 {
        fill: #fbe4ee;
      }

      .cls-34 {
        fill: #fdf8ee;
      }

      .cls-35 {
        fill: #d98e37;
      }

      .cls-36 {
        fill: #eff8fd;
      }

      .cls-37 {
        fill: #bce4eb;
      }

      .cls-38 {
        fill: #a8c6d5;
      }

      .cls-39 {
        fill: #8ed5e7;
      }

      .cls-40 {
        fill: #4ebbcc;
      }

      .cls-41 {
        fill: #b2e2f9;
      }

      .cls-42 {
        fill: #d2ecf2;
      }

      .cls-43 {
        fill: #8ccaae;
      }

      .cls-44 {
        fill: #41b771;
      }

      .cls-45 {
        fill: #e9f5f8;
      }

      .cls-46 {
        fill: #be3844;
      }

      .cls-47 {
        fill: #ac6629;
      }
    </style>
  </defs>
  <g id="Layer_1-2" data-name="Layer 1">
    <g>
      <g>
        <rect class="cls-40" width="639.43" height="183.29"/>
        <path class="cls-23" d="M614.63,183.29h-23.13V0h23.13v183.29ZM567.16,0h-23.13v183.29h23.13V0ZM519.7,0h-23.13v183.29h23.13V0ZM472.24,0h-23.13v183.29h23.13V0ZM424.78,0h-23.13v183.29h23.13V0ZM377.31,0h-23.13v183.29h23.13V0ZM329.85,0h-23.13v183.29h23.13V0ZM282.39,0h-23.13v183.29h23.13V0ZM234.93,0h-23.13v183.29h23.13V0ZM187.46,0h-23.13v183.29h23.13V0ZM140,0h-23.13v183.29h23.13V0ZM92.54,0h-23.13v183.29h23.13V0ZM45.08,0h-23.13v183.29h23.13V0Z"/>
        <polygon class="cls-22" points="639.43 183.29 0 183.29 0 116.17 248.5 0 386.05 0 639.43 103.43 639.43 183.29"/>
        <polygon class="cls-43" points="508.24 183.15 101.94 183.14 207.26 30.27 430.02 29.74 508.24 183.15"/>
        <polygon class="cls-37" points="508.24 183.15 101.94 183.14 207.26 30.27 430.02 29.74 508.24 183.15"/>
        <path class="cls-9" d="M519.7,54.66v128.63h-23.13V45.24l23.13,9.42ZM354.18,0v183.29h23.13V0h-23.13ZM401.64,6.57v176.72h23.13V15.99l-23.13-9.42ZM449.11,25.9v157.39h23.13V35.33l-23.13-9.42ZM591.49,83.91v99.38h23.13v-89.96l-23.13-9.42ZM544.03,64.57v118.72h23.13v-109.29l-23.13-9.42ZM21.94,106.02v77.27h23.13v-88.07l-23.13,10.8ZM116.87,61.69v121.6h23.13V50.89l-23.13,10.8ZM164.33,39.52v143.76h23.13V28.72l-23.13,10.8ZM69.41,83.86v99.43h23.13v-110.24l-23.13,10.8ZM211.79,17.36v165.93h23.13V6.56l-23.13,10.8ZM306.72,0v183.29h23.13V0h-23.13ZM259.26,0v183.29h23.13V0h-23.13Z"/>
        <g>
          <polygon class="cls-36" points="259.26 30.14 282.39 30.09 282.39 183.15 259.26 183.15 259.26 30.14"/>
          <polygon class="cls-36" points="306.72 30.03 329.85 29.98 329.85 183.15 306.72 183.15 306.72 30.03"/>
          <polygon class="cls-36" points="211.79 30.26 234.93 30.2 234.93 183.15 211.79 183.15 211.79 30.26"/>
          <polygon class="cls-36" points="424.78 183.15 401.64 183.15 401.64 29.81 424.78 29.75 424.78 183.15"/>
          <polygon class="cls-36" points="354.18 29.92 377.31 29.87 377.31 183.15 354.18 183.15 354.18 29.92"/>
          <polygon class="cls-36" points="496.57 160.27 508.24 183.15 496.57 183.15 496.57 160.27"/>
          <polygon class="cls-36" points="116.87 161.47 140 127.89 140 183.14 116.87 183.14 116.87 161.47"/>
          <polygon class="cls-36" points="472.24 183.15 449.11 183.15 449.11 67.17 472.24 112.55 472.24 183.15"/>
          <polygon class="cls-36" points="187.46 183.15 164.33 183.14 164.33 92.58 187.46 59 187.46 183.15"/>
        </g>
        <rect class="cls-4" y="165.88" width="639.43" height="194.12"/>
      </g>
      <g>
        <rect class="cls-14" x="212.37" y="29.67" width="214.7" height="108.67"/>
        <rect class="cls-41" x="216.22" y="32.11" width="206.99" height="104.28"/>
        <path class="cls-44" d="M216.22,136.4h206.99v-45.56c-1.83.53-2.65,2.43-.34,4.75-6.09-2.24-11.01,3.24-7.13,8.51-11.36-.66-11.61,5.53-11.98,10.01-5.36-2.4-11.54-1.92-10.8,1.76-3.68-3.18-10.63-2.19-13.67,1.28-2.03-8.15-16.29-12.31-22.69-8.29,1.27-4.12-9.55-5.67-15.26-1.62-2.38-7.38-10.34-5.43-11.82.64-3.22-2.79-9.05-1.28-8.13,3.68-5.36-3.04-12.78.76-9.51,7.03-2.01-1.22-6.87-.49-7.92,3.67-1.66-4.27-9.93-3.98-10.63.23-3.53-6.87-15.97-3.87-18.34,4.69-2.81-4.76-10.94-2.84-12.53,1.35-3.42-4.9-12.49-6.77-17.8-3.08.74-1.28-2.59-5.27-5.72-3.44,0,0,.18-7.67-7.57-7.99,6.46-6.39-4.25-18.62-11.82-18.14,6.25-3.51,2.46-10.48-3.32-7.13v47.64Z"/>
        <path class="cls-26" d="M230.17,57.35c-1.67-.38-4.83,0-5.18,1.82-.45,2.34,3.48,3.36,5.27,2.81.34,2.49,5.96,6.44,11.54,2.05,2.12,3.18,8.64,3.41,11.01-.53,3.1,3.48,9.96,1.47,8.61-1.89,5.41.44,6.89-2.05,5.7-3.95-1.18-1.9-4.78-1.79-5.79-1.06,1.52-4.1-3.64-8.48-9.74-5.32-.17-5.96-11.18-5.04-11.04-.25-3.94-2.92-10.45,1.32-7.57,4.35-1.93-.91-3.95,1.06-2.81,1.98Z"/>
        <path class="cls-26" d="M313.32,48.09c-1.37-.31-3.96,0-4.25,1.5-.37,1.92,2.86,2.76,4.32,2.31.28,2.04,4.89,5.28,9.47,1.68,1.74,2.61,7.09,2.8,9.04-.44,2.54,2.86,8.17,1.21,7.06-1.55,4.44.36,5.66-1.68,4.68-3.24-.97-1.56-3.92-1.47-4.75-.87,1.25-3.36-2.99-6.96-8-4.36-.14-4.89-9.18-4.14-9.06-.2-3.24-2.39-8.58,1.08-6.21,3.57-1.59-.75-3.24.87-2.31,1.62Z"/>
        <path class="cls-26" d="M384.45,54.24c-1.37-.31-3.96,0-4.25,1.5-.37,1.92,2.86,2.76,4.32,2.31.28,2.04,4.89,5.28,9.47,1.68,1.74,2.61,7.1,2.8,9.04-.44,2.54,2.86,8.17,1.21,7.06-1.55,4.44.36,5.66-1.68,4.68-3.24-.97-1.56-3.92-1.47-4.76-.87,1.25-3.36-2.99-6.96-8-4.36-.14-4.9-9.18-4.14-9.06-.2-3.24-2.39-8.58,1.08-6.21,3.57-1.58-.75-3.24.87-2.31,1.62Z"/>
        <g class="cls-31">
          <polygon class="cls-26" points="376.18 136.29 411.93 136.29 345.66 32.04 309.91 32.04 376.18 136.29"/>
          <polygon class="cls-26" points="357.05 136.29 363.7 136.29 297.42 32.04 290.78 32.04 357.05 136.29"/>
          <polygon class="cls-26" points="291.6 136.29 305.9 136.29 239.62 32.04 225.33 32.04 291.6 136.29"/>
        </g>
        <path class="cls-26" d="M209.05,26.82v114.69h221.33V26.82h-221.33ZM425.09,137.5h-210.74V30.83h210.74v106.67Z"/>
        <rect class="cls-14" x="272.45" y="31.68" width="4.94" height="105.51"/>
        <rect class="cls-26" x="270.94" y="28.4" width="4.94" height="112.16"/>
        <rect class="cls-14" x="368.62" y="31.85" width="4.94" height="105.9"/>
        <rect class="cls-26" x="369.8" y="28.4" width="4.94" height="112.16"/>
      </g>
    </g>
    <g>
      <g>
        <path class="cls-1" d="M4.35,185.42v-72.7c8.14-63.14,100-77.84,111.32-30.06,0,18.38-102,106.18-102,106.18l-9.32-3.41Z"/>
        <path class="cls-3" d="M6.46,184.48v-72.7c3.22-25.02,19.6-42.43,38.89-51.37-20.2,8.62-37.66,26.38-41,52.3v72.7l9.32,3.41s.49-.42,1.39-1.2l-8.6-3.15Z"/>
        <path class="cls-27" d="M12.62,188.96v-71.52c8.14-60.78,95.57-82.04,105.8-32.69v70.34L12.62,188.96Z"/>
        <path class="cls-33" d="M69.1,58.73c-10.31,13.5-25.68,27-48.24,34.57-4.13,7.13-7.04,15.21-8.23,24.14v9.12c16.65-20.48,54.37-59.01,100.05-55.27-9.06-12.55-26.07-16.24-43.57-12.56Z"/>
        <path class="cls-8" d="M114.9,109.38c-3.08-.26-5.9-11.54-13.6-18.98-7.7-7.44-28.52-14.68-40.58,4.3-7.76,12.22-12.52,15.67-20.88,19.47-14.11,6.41-17.27,14.04-10.09,17.12,7.18,3.08-2.73,6.95-9.15,10.04-6.93,3.34-6.79,15.25-5.25,23.71,1.05,5.76-.77,18.73,1.03,20.52,3.23,3.23,10.77-5.64,10.77-5.64l87.73-70.55Z"/>
        <path class="cls-19" d="M14.19,119.02c6.88-51.36,70.37-74.5,96.06-50.66-24.56-26.38-90.62-3.36-97.64,49.08v54.79c.71-17.04,1.58-39.62,1.58-53.22Z"/>
        <path class="cls-3" d="M64.19,68.03l1.71,3.04,3.81-.68-2.75,3.71.66,3.75-3.41-.75-3.41,2.99.65-4.18-2.76-1.9,3.81-1.83,1.7-4.17ZM29.4,104.02l-3.81,1.83,2.76,1.9-.65,4.18,3.41-2.99,3.41.75-.66-3.75,2.75-3.71-3.81.68-1.71-3.04-1.7,4.17ZM100.51,75.18l-3.81,1.83,2.76,1.9-.65,4.18,3.41-2.99,3.41.75-.66-3.75,2.75-3.71-3.81.68-1.71-3.04-1.7,4.17Z"/>
        <path class="cls-1" d="M102.15,71.16l.06-.14.08.14s-.09,0-.14,0ZM61.44,75.92l-.65,4.18,3.41-2.99,3.41.75-.66-3.75,2.75-3.71-3.81.68-1.71-3.04-1.7,4.17-3.81,1.83,2.76,1.9ZM28.08,109.53c2.4-2.37,4.96-4.77,7.66-7.16l-2.92.52-1.71-3.04-1.7,4.17-3.81,1.83,2.76,1.9-.28,1.78Z"/>
      </g>
      <path class="cls-20" d="M20.69,160.87c-2.76.39-3.54,3.94-3.15,9.45.39,5.51-1.97,13.39,1.97,15.16,3.94,1.77,41.81,17.66,62.81,25.79,5.91-5.12,12.21-16.54,8.66-22.05-3.01-4.69-70.3-28.35-70.3-28.35Z"/>
      <path class="cls-6" d="M81.42,190.82c-.01-.07-.97-.67-5.81-2.23-3.93,5.28-.41,17.77-4.16,15.42-21-8.14-49.18-20.51-53.12-22.28-.45-.2-.81-.49-1.11-.84.13,2.15.69,3.87,2.29,4.59,3.94,1.77,41.81,17.66,62.81,25.79-.14-10.96-.32-16.7-.9-20.46Z"/>
      <path class="cls-32" d="M87.49,185.76c-15.57-7.82-65.86-25.51-65.86-25.51-1.8.26-2.76,1.87-3.1,4.48.11.06.22.12.34.18,3.94,1.77,38.4,17.39,64.13,26.32,1.62-1.4,3.16-3.32,4.49-5.47Z"/>
      <path class="cls-28" d="M18.33,147.48c1.77-3.54,13.59-10.63,26.19-14.96,9.93-3.41,15.59-5.42,31.7-13,16.34-7.68,27.57-5.51,34.85-9.85,7.29-4.33,7.75-2.42,13.65-2.7,4.14-.2,13.98,5.12,24.81,13.59,10.83,8.47,17.33,8.28,37.55,12.74,20.22,4.46-71.41,65.9-89.79,60.65-18.38-5.25-46.73-16.8-59.07-22.05-12.34-5.25-19.33-8.6-20.48-11.81-1.31-3.68-.82-9.78.59-12.6Z"/>
      <path class="cls-15" d="M37.65,136.34c-3.41,1.31-9.45,2.63-4.99,3.41,4.46.79,8.4,4.99.53,6.56-7.88,1.58,8.93,1.31,14.96,5.25,6.04,3.94,12.08,3.15,16.28,6.56,4.2,3.41,5.93,13.83,9.98,10.24,9.69-8.59,6.64-.87,3.75,5.17-2.89,6.04-2.7,13.3,2.81,12.51,5.51-.79,55.4-51.76,55.4-51.76,0,0-9.98-.84-9.98-2.67s6.56-2.89,10.5-5.78c3.94-2.89,9.42-1.16,9.09-3.04-.23-1.33-2.7-1-8.21-1.52-5.51-.52-9.95-4.85-10.2-7.74-.31-3.6-2.93-3.87-3.28-3.64-2.94,1.96-6.04-2.17-11.29-.86-5.25,1.31-75.35,27.3-75.35,27.3Z"/>
      <path class="cls-18" d="M133.21,121c-1.01-.42-1.78-1.53-2.68-2.86-1.27-1.08-2.2-2.3-2.66-3.43-1.48-1.5-3.49-2.82-6.51-3.36-2.02-.36-4.36-1.29-6.78-2.56-.51.03-1.04.11-1.59.24-5.25,1.31-75.35,27.3-75.35,27.3-.06.02-.13.05-.2.07,3.75,5.98,9.04,15.09,26.3,19.57,9.71,2.52,7.71,9.8,12.16,9.29,3.38-.39,5.62-3.58,7.13-5.1,10.41-10.44,36.91-26.28,43.37-28.77.43-1.63,6.04-2.68,9.86-5.15,1.67-2.23-.26-4.09-3.07-5.26Z"/>
      <g>
        <path class="cls-45" d="M98.1,93.37c-.71-1.29-2.29-2.68-5.83.73-2.03,1.96-7.24,8-12.69,9.61-5.45,1.61-27.54,3.86-35.08,9.89-7.54,6.03-10.42,8.2-12.94,8.98-4.59,1.42-3.83,5.29.65,6.35,6.99,1.67,6.23,18.52,31.86,25.18,9.71,2.52,7.71,9.8,12.16,9.29,3.38-.39,5.62-3.58,7.13-5.1,10.69-10.72,38.36-27.15,43.85-28.94,13.28-4.33,11.03-8.27,6.3-10.24-2.93-1.22-3.79-8.21-11.84-9.65-8.05-1.43-21.33-12.04-23.58-16.11Z"/>
        <path class="cls-29" d="M34.71,126.28c6.74-.74,18.92,1.8,23.17,8.92,4.25,7.12,20.25,16.35,20.25,24.61-2.81-3.09-6.16-8.14-11.34-8.21-5.17-.07-20.2-7.76-22.3-14.42-2.1-6.66-9.78-10.91-9.78-10.91Z"/>
        <path class="cls-18" d="M57.88,135.21c-4.25-7.12-16.43-9.67-23.17-8.92,0,0,4.04,2.24,7.07,6.02.69-6.34,10.39-.71,14.23,5.72,4.25,7.12,17.46,11.44,8.71,13-.63-.69-1.23-.68-1.85-.24,1.56.52,2.93.81,3.92.83,5.17.07,8.52,5.12,11.34,8.21,0-8.26-15.99-17.49-20.25-24.61Z"/>
      </g>
      <path class="cls-28" d="M95.98,213.9c1.38,6.56,16.58,10.71,26.91,11.55,13.14,1.07,23.14,11.26,34.09,10.01,10.18-1.16,97.51-87.72,85.69-88.51-11.81-.79-43.51-11.82-56.11-16.54-12.6-4.73-32.95.92-57.37,16.28-24.42,15.36-39.51,37.28-33.21,67.21Z"/>
      <path class="cls-15" d="M242.67,146.96c-10.32-.69-31.69-6.57-46.38-11.86-20.68,10.93-44.27,32.28-48.23,62.99v36.11l1.25.49c2.54.71,5.08,1.06,7.67.77,10.18-1.16,97.51-87.72,85.69-88.51Z"/>
      <path class="cls-15" d="M162.61,203.46c-10.56,1.21-20.22-8.63-32.9-9.66-9.97-.81-24.63-4.82-25.97-11.15-.58-2.75-.97-5.43-1.18-8.03-6.69,11.2-9.29,24.37-6.06,39.73,1.33,6.33,16,10.34,25.97,11.15,12.69,1.04,22.34,10.87,32.9,9.66,9.83-1.12,13.22-32.38,7.24-31.69Z"/>
      <path class="cls-25" d="M155.6,233.05c-10.56,1.21-20.22-8.62-32.9-9.66-9.97-.81-24.63-4.82-25.97-11.15-1.31-6.23-1.66-12.1-1.17-17.63-.8,6.14-.55,12.71.94,19.74,1.33,6.33,16,10.34,25.97,11.15,12.69,1.04,22.34,10.87,32.9,9.66,5.72-.65,9.26-11.52,10.04-20.35-1.11,8.36-4.53,17.64-9.81,18.24Z"/>
      <path class="cls-25" d="M156.97,235.47c10.18-1.16,13.7-33.55,7.51-32.84-5.51.63-10.78-1.64-16.34-4.19-.03.2-.06.39-.08.59v35.29c2.96.96,5.9,1.49,8.91,1.14Z"/>
      <path class="cls-13" d="M131.85,148.57c-24.42,15.36-40.29,36.33-33.98,66.25.42,1.98,5.52,3.12,7.93,4.64,2.41-2.61,2.39-7.45,2.39-7.45.39-10.9-.95-22.27,7.98-35.65,8.76-13.14,40.22-31.97,51.35-36.71,22.38-9.52,23.13-2.06,32.69-2.36-.23-.44-.49-.87-.76-1.3-4.02-1.41-7.55-2.7-10.22-3.7-12.6-4.73-32.95.92-57.37,16.28Z"/>
      <path class="cls-25" d="M103.74,182.65c-.58-2.75-.97-5.43-1.18-8.03-6.69,11.2-9.29,24.37-6.06,39.73.04.18.09.36.15.54,1.74.82,3.71,2.38,5.05,3.22,2.41-2.61,2.58-8.29,2.58-8.29.26-7.39-.26-14.99,2.15-23.29-1.42-1.17-2.38-2.47-2.68-3.88Z"/>
      <path class="cls-45" d="M104.59,211.38s.05,9.45-6.57,9.07c-6.62-.39-16.79-2.43-18.76-10.32-1.56-6.25-.03-32.39,11.2-46.31,8.82-10.93,19.91-14.07,34.65-21.79,15.48-8.11,14.46-11.65,31.09-18.22,11.88-4.69,31.21-.67,36.59,9.7-7.19-1.88-11.88-3.13-26.21,3.95-10.84,5.36-46.68,26.49-52.56,38.15-10.43,20.68-9.04,24.87-9.43,35.77Z"/>
      <path class="cls-42" d="M82.33,180.23c-3.78,12.45-4.13,25.68-3.07,29.9,1.97,7.89,12.14,9.93,18.76,10.32,6.62.38,6.57-9.07,6.57-9.07.29-8.11-.4-12.52,3.52-22.76-8.01.51-20.24-3.21-25.78-8.39Z"/>
      <path class="cls-5" d="M29.03,151.42c-5.22-3.28-10.41-6.76-9.58-2.89.39,1.84,8.8,6.43,18.25,10.76,9.45,4.33,24.31,11.8,31.4,14.56,7.09,2.76,9.46,0,1.58-3.54-14.05-6.3-31-12.2-41.64-18.89Z"/>
      <path class="cls-38" d="M21.1,168.75c-3.15-.79-3.41.79,2.36,3.68,5.78,2.89,14.7,4.94,30.46,12.29,15.75,7.35,24.59,6.66,15.95,3.28-12.08-4.73-44.57-18.2-48.77-19.25Z"/>
      <g>
        <path class="cls-1" d="M149.47,236.08v-36.11c8.14-63.14,81.94-97.74,96.67-49.3,0,18.38-87.87,88.89-87.87,88.89l-8.8-3.48Z"/>
        <path class="cls-3" d="M151.58,235.62v-36.11c4.81-37.33,32.57-64.68,57.51-70.79-25.46,5.05-54.67,32.88-59.62,71.26v36.11l8.8,3.48s.38-.3,1.08-.88l-7.77-3.07Z"/>
        <path class="cls-2" d="M245.97,150.16c-3.05,19.85-87.78,87.84-87.78,87.84l-8.72-3.45v1.53l8.8,3.48s87.87-70.51,87.87-88.89c-.05-.18-.11-.35-.16-.52Z"/>
        <path class="cls-27" d="M158.26,239.56s-.53-11.76-.53-34.87c8.14-60.78,80.91-101.28,91.15-51.92v33.75l-90.63,53.04Z"/>
        <path class="cls-33" d="M225.5,130.72c-3.37,11.9-18.25,52.84-65.94,64.49-.78,3.1-1.39,6.27-1.82,9.49,0,8.07.06,14.76.15,20.05,13.23-16.97,48.24-55.4,91-50.74v-21.23c-3.14-15.13-12.16-21.82-23.39-22.06Z"/>
        <path class="cls-30" d="M158.18,237.48c.05,1.39.08,2.09.08,2.09l90.63-53.04v-2.13l-90.7,53.08Z"/>
        <path class="cls-19" d="M158.5,239.42c.32-5.91.8-17.39.8-32.85,7.05-52.65,62.61-90.08,83.99-67.06-20.09-26.79-78.33,11.2-85.56,65.19,0,23.1.53,34.87.53,34.87l.24-.14Z"/>
        <polygon class="cls-3" points="203.76 144.03 205.47 147.07 209.28 146.39 206.52 150.1 207.18 153.85 203.77 153.1 200.36 156.1 201.01 151.92 198.25 150.02 202.06 148.19 203.76 144.03"/>
        <polygon class="cls-3" points="177.75 174.26 179.46 177.3 183.27 176.63 180.52 180.34 181.17 184.09 177.76 183.34 174.35 186.33 175 182.16 172.24 180.26 176.05 178.43 177.75 174.26"/>
        <polygon class="cls-1" points="234.74 142.48 236.45 145.52 240.26 144.85 237.5 148.56 238.16 152.31 234.75 151.56 231.34 154.55 231.99 150.38 229.23 148.48 233.04 146.65 234.74 142.48"/>
      </g>
    </g>
    <g>
      <path class="cls-21" d="M430.45,273.12v-117.21c0-4.18-3.4-7.58-7.58-7.58h-139.69c-4.18,0-7.58,3.4-7.58,7.58v117.21c-8.13.92-14.48,7.84-14.48,16.21v6.55c0,1.02.82,1.84,1.84,1.84s1.84-.82,1.84-1.84v-6.55c0-6.97,5.67-12.64,12.64-12.64,0,0,0,0,0,0,0,0,0,0,0,0,6.97,0,12.64,5.67,12.64,12.64v6.55c0,1.02.82,1.84,1.84,1.84s1.84-.82,1.84-1.84v-6.55c0-8.38-6.34-15.3-14.48-16.21v-117.21c0-2.15,1.75-3.91,3.91-3.91h139.69c2.15,0,3.91,1.75,3.91,3.91v117.21c-8.13.92-14.48,7.84-14.48,16.21v6.55c0,1.02.82,1.84,1.84,1.84s1.84-.82,1.84-1.84v-6.55c0-6.97,5.67-12.64,12.64-12.64,0,0,0,0,0,0s0,0,0,0c6.97,0,12.64,5.67,12.64,12.64v6.55c0,1.02.82,1.84,1.84,1.84s1.84-.82,1.84-1.84v-6.55c0-8.38-6.34-15.3-14.48-16.21Z"/>
      <path class="cls-11" d="M265.01,296.01c0,1.19-.96,2.15-2.15,2.15h0c-1.19,0-2.15-.96-2.15-2.15v-2.25h4.3v2.25Z"/>
      <path class="cls-11" d="M294.13,296.01c0,1.19-.96,2.15-2.15,2.15h0c-1.19,0-2.15-.96-2.15-2.15v-2.25h4.3v2.25Z"/>
      <path class="cls-11" d="M416.28,296.01c0,1.19-.96,2.15-2.15,2.15h0c-1.19,0-2.15-.96-2.15-2.15v-2.25h4.3v2.25Z"/>
      <path class="cls-11" d="M445.39,296.01c0,1.19-.96,2.15-2.15,2.15h0c-1.19,0-2.15-.96-2.15-2.15v-2.25h4.3v2.25Z"/>
      <g>
        <path class="cls-46" d="M413.71,167.32l-21.93-6.9v-3.02c2.69-.55,4.72-2.93,4.72-5.78,0-3.25-2.64-5.9-5.9-5.9s-5.9,2.65-5.9,5.9c0,.66.54,1.2,1.2,1.2s1.2-.54,1.2-1.2c0-1.93,1.57-3.49,3.49-3.49s3.49,1.57,3.49,3.49-1.57,3.49-3.49,3.49c-.57,0-1.04.39-1.17.92-.04.12-.06.24-.06.38v4.02l-20.65,6.89c-.49.16-.82.62-.82,1.14v4.97c0,.66.54,1.2,1.2,1.2h7.69c.66,0,1.2-.54,1.2-1.2s-.54-1.2-1.2-1.2h-6.49v-2.9l20.28-6.77,21.55,6.79v2.89h-9.38c-.66,0-1.2.54-1.2,1.2s.54,1.2,1.2,1.2h10.58c.66,0,1.2-.54,1.2-1.2v-4.97c0-.52-.34-.99-.84-1.15Z"/>
        <rect class="cls-21" x="383.7" y="148.32" width="6.03" height="3.68"/>
        <g>
          <g>
            <path class="cls-35" d="M430.25,177.51s-2.45,10.26-5.7,12.08c-5.84-2.26-14.37-11.11-18.83-15.03.64,10.92,4.2,28.77,5.46,33.91.57,2.34-8.61,6.25-20.61,6.25s-19.91-4.83-19.64-6.25c2.64-13.72,5.59-34.88,5.59-34.88,0,0-7.42,12.56-18.4,16.24-.7-.47-6.89-9.08-6.26-12.22,7.81-3.27,20.49-11.64,25.32-16.15,2.96-2.8,10.09-3.37,10.09-3.37,0,0,5.93-.31,7.97.04,0,0,6.38.36,10.12,3.95,3.74,3.58,16.66,11.72,24.89,15.43Z"/>
            <polygon class="cls-47" points="391.3 157.93 392.26 210.55 388.43 209.82 388.86 158.26 391.3 157.93"/>
            <path class="cls-17" d="M425.84,174.63c.58-1.02,1.45-1.26,1.89-.68.44.58.84,1.16,1.84.89.83-.22,1.89.49,1.89,1.51s1.4-.05,1.62,1.11c.11.61-.63,1.48-1.78,1.67-.67.11-.84,1.06-.45,1.67.5.79-.32,1.77-.95,1.84-.63.07-1.11,1.06-.72,1.67.61.96-.45,2.28-1.23,2.56-1.1.39-1.24.88-.95,1.89.29,1.02-.43,2.72-1.31,2.14-.87-.58-1.03-.36-1.26.59-.17.71-1.56.5-2.06-.33-.3-.5-.84-1.12-1.5-.89-1.24.43-1.57.05-1.57-.97s-.14-1.08-1.16-1.02c-.5.03-.98-1.44-.11-1.58.87-.15.9-.74.61-1.62-.29-.87.05-1.56,1.11-1.84,1.13-.3,1.57-.34,1.28-1.5-.29-1.16.3-1.98,1.17-1.84.87.14,1.45-.95,1.28-1.34-.47-1.1-.44-2.13.72-1.84,1.16.29.03-1.09.32-1.81.29-.73,1.31-.29,1.31-.29Z"/>
            <path class="cls-17" d="M356.36,174.63c-.58-1.02-1.45-1.26-1.89-.68-.44.58-.85,1.16-1.84.89-.84-.22-1.89.49-1.89,1.51s-1.4-.05-1.62,1.11c-.11.61.63,1.48,1.78,1.67.67.11.84,1.06.45,1.67-.5.79.32,1.77.95,1.84.63.07,1.11,1.06.72,1.67-.61.96.45,2.28,1.23,2.56,1.1.39,1.24.88.95,1.89-.29,1.02.43,2.72,1.31,2.14.87-.58,1.03-.36,1.26.59.17.71,1.56.5,2.06-.33.3-.5.84-1.12,1.51-.89,1.24.43,1.57.05,1.57-.97s.14-1.08,1.16-1.02c.5.03.98-1.44.11-1.58-.87-.15-.9-.74-.61-1.62.29-.87-.06-1.56-1.11-1.84-1.13-.3-1.57-.34-1.28-1.5.29-1.16-.3-1.98-1.17-1.84-.87.14-1.45-.95-1.28-1.34.47-1.1.44-2.13-.72-1.84-1.16.29-.03-1.09-.32-1.81-.29-.73-1.31-.29-1.31-.29Z"/>
            <path class="cls-17" d="M411.62,202.82c-.89-1.12-2.45,0-2.67,1.12-.22,1.11-2.45,1.56-3.34.67-.89-.89-2.9-.22-2.9.89s-1.34,2.01-2.67,1.11c-1.34-.89-2.9-1.56-3.79.45-.89,2.01-1.78,1.34-3.57,0-1.78-1.34-3.12-1.56-4.46.22-1.34,1.78-1.78.67-2.9-.22-1.11-.89-1.34-2.23-2.67-.45-1.34,1.78-2.45,1.34-3.34,0-.89-1.34-2.01-2.23-3.12-.89-1.11,1.34-2.23,1.11-2.9-.44-.67-1.56-.45-2.23-1.78-1.78-1.34.45-1.78.89-1.11,2.23.67,1.34-.22.89-1.11,1.56-.89.67-1.11,2-.22,2.45.89.45.89,1.78,0,2.68-.89.89,1.56,2.01,2.67,1.34,1.11-.67,1.56.22,2.45,1.34.89,1.12,2.01,1.78,2.9.67.89-1.11,3.34-.22,4.01.67.67.89,2.68,1.11,3.34-.22.67-1.34,2.9-.45,3.12.67.22,1.11,2.45,1.56,3.34.45.89-1.11,1.78-1.11,3.12-.22,1.34.89,2.45.89,3.57,0,1.11-.89,1.56-.67,2.45,0,.89.67,2.67-.89,3.57-2.01.89-1.11,1.56-1.11,2.9-.22,1.34.89,1.78.45,2.23-.67.45-1.12,1.11-1.34,2.45-.89,1.34.44,2.9-.23,2.01-1.56-.89-1.34-.45-2.23.89-2.45,1.34-.22,1.34-1.56-.45-2.23-1.78-.67-2.01-1.78-1.11-2.45.89-.67-.89-1.78-.89-1.78Z"/>
          </g>
          <g>
            <polygon class="cls-10" points="385.72 163.1 394.93 167.76 394.06 168.9 385.51 164.43 385.72 163.1"/>
            <polygon class="cls-10" points="394.91 163.41 385.41 167.44 386.2 168.63 395.03 164.75 394.91 163.41"/>
          </g>
          <g>
            <polygon class="cls-10" points="385.81 173.17 394.69 178.43 393.74 179.52 385.51 174.48 385.81 173.17"/>
            <polygon class="cls-10" points="394.96 174.09 385.21 177.48 385.92 178.73 394.99 175.44 394.96 174.09"/>
          </g>
          <g>
            <polygon class="cls-10" points="385.74 184.51 395.27 188.47 394.49 189.67 385.63 185.85 385.74 184.51"/>
            <polygon class="cls-10" points="394.93 184.13 385.75 188.86 386.63 190 395.15 185.46 394.93 184.13"/>
          </g>
        </g>
      </g>
      <path class="cls-46" d="M350.32,166.8l-21.86-6.88v-3.01c2.68-.54,4.71-2.92,4.71-5.76,0-3.24-2.64-5.88-5.88-5.88s-5.88,2.64-5.88,5.88c0,.66.54,1.2,1.2,1.2s1.2-.54,1.2-1.2c0-1.92,1.56-3.48,3.48-3.48s3.48,1.56,3.48,3.48-1.56,3.48-3.48,3.48c-.57,0-1.04.39-1.16.92-.04.12-.06.24-.06.38v4.01l-20.59,6.87c-.49.16-.82.62-.82,1.14v4.95c0,.66.54,1.2,1.2,1.2h7.67c.66,0,1.2-.54,1.2-1.2s-.54-1.2-1.2-1.2h-6.47v-2.89l20.22-6.75,21.49,6.76v2.88h-9.35c-.66,0-1.2.54-1.2,1.2s.54,1.2,1.2,1.2h10.55c.66,0,1.2-.54,1.2-1.2v-4.95c0-.52-.34-.99-.84-1.14Z"/>
      <g>
        <path class="cls-12" d="M333.58,159.7c4.18,10.39-14.59,15.18-15.55,2.35-1.91.13-4.45.89-5.3.87.69,4.63.69,7.43.02,9.43.13,4.26-6.66,27.59-8.8,32.39,9.77,6.75,33.85,8.31,49.85-.93,0,0-9.86-33.49-10-34.04-.73-2.95-2.4-7.59-3.96-9.36-1.67-.58-4.88-.97-6.26-.7Z"/>
        <path class="cls-24" d="M304.5,203.03s18.27,10.62,49.03-.41c.6,1.52.9,3.1.9,3.1,0,0-1.59,2.97-4.62,1.38-1.17,3.86-5.03,3.79-6.21,2.41-1.52,2.76-6.07,2.9-6.62,1.38-2.2,3.26-7.17,2.28-7.38.62-1.93,2.99-7.45,1.93-7.86.07-3.17,1.24-6.83-.69-6.9-1.86-2.34,1.59-5.59,1.03-5.52-.83-1.45,2-4.69.55-4.34-1.24-1.59.55-1.93-1.66-1.93-1.66l1.45-2.97Z"/>
        <path class="cls-34" d="M329.03,175.66c1.95-3.14,5.1-1.66,4.82.22-.28,1.88-4.3,2.86-4.35,5.21-1.83-2.75-5.95-2.83-5.31-5.41.64-2.58,3.44-1.34,4.83-.02Z"/>
        <path class="cls-34" d="M332.38,159.51c.99,3.73.76,8.48-5,8.93-3.79.3-6.59-2.04-7.77-7.09-.96.33-1.78.66-1.78.66,0,0,1.43,10.02,10.92,8.07,7.89-1.62,5.4-10.6,5.4-10.6l-1.76.04Z"/>
      </g>
    </g>
    <g>
      <path class="cls-7" d="M345.52,276.37c.5.39.89,2.42.58,3.14-1.4,2.87-5.08,7.17-10.24,8.14-3.76.71-7.81-.31-8.89-2.09-.32-.52-.9-1.95-.15-3.12,4.95-3.62,18.7-6.06,18.7-6.06Z"/>
      <path class="cls-16" d="M344.22,271.47s-1.52,3.42-2.82,2.96c.65-1.3-.59-3.96-2.48-4.04-1.88-.07-1.72,2.33-1.72,2.33,0,0-2.47-.11-5.82,1.62-5.62,2.9-5.35,6.72-4.56,8.08,1.14,1.23,5.43,2.45,10.32,1.14,4.88-1.31,7.49-5.56,8.04-6.17.54-.6.82-2.01.15-3-.66-.99.07-3.08-1.12-2.93Z"/>
      <path class="cls-39" d="M330.31,277.34c-1.85-.31-4.26,2.65-2.03,4.44,2.23,1.78,7.89-.09,7.89-.09,0,0-5.56.75-5.39-1.72.06-.94,1.1-2.37-.47-2.63Z"/>
      <path class="cls-26" d="M338.5,275.69c-.11.01-.23-.02-.32-.12-1.86-1.94-3.26-.57-3.32-.51-.15.15-.39.14-.53-.02-.15-.17-.16-.43-.01-.58.02-.02,1.99-1.95,4.38.55.16.16.16.42.02.57-.06.06-.13.1-.22.11Z"/>
      <path class="cls-26" d="M335.01,276.92c-.12.02-.24-.03-.33-.12-1.87-1.95-3.26-.57-3.32-.5-.15.14-.39.12-.54-.04-.15-.16-.15-.41,0-.57.02-.01,2-1.95,4.38.56.16.16.16.41.02.57-.06.06-.13.1-.21.11Z"/>
    </g>
    <g>
      <path class="cls-7" d="M353.73,276.44c-.49.39-.85,2.4-.52,3.13,1.46,2.89,5.22,7.26,10.4,8.32,3.78.78,7.81-.17,8.85-1.94.31-.52.86-1.94.09-3.12-5.02-3.7-18.82-6.4-18.82-6.4Z"/>
      <path class="cls-16" d="M354.94,271.57s1.59,3.45,2.87,3.01c-.67-1.31.52-3.95,2.4-3.99,1.88-.03,1.77,2.36,1.77,2.36,0,0,2.47-.06,5.85,1.73,5.68,3,5.48,6.82,4.71,8.16-1.12,1.21-5.39,2.35-10.3.96-4.91-1.4-7.59-5.69-8.16-6.31-.55-.61-.86-2.03-.21-3.01.64-.98-.13-3.08,1.06-2.91Z"/>
      <path class="cls-7" d="M368.96,277.68c1.84-.27,4.31,2.73,2.11,4.48-2.2,1.74-7.9-.24-7.9-.24,0,0,5.58.85,5.36-1.62-.08-.94-1.15-2.39.42-2.62Z"/>
      <path class="cls-26" d="M360.75,275.89c.11.02.23-.02.32-.12,1.82-1.91,3.25-.51,3.31-.45.15.15.39.15.53-.02.15-.17.15-.43,0-.58-.02-.02-2.03-1.98-4.37.48-.16.16-.15.41-.01.57.06.06.13.1.22.11Z"/>
      <path class="cls-26" d="M364.26,277.18c.12.02.24-.02.33-.11,1.83-1.91,3.25-.51,3.31-.44.15.15.4.13.54-.03.14-.16.14-.41,0-.57-.02-.02-2.03-1.98-4.37.48-.16.15-.16.41-.01.57.06.06.13.1.21.11Z"/>
    </g>
  </g>
</svg>